<mxfile host="app.diagrams.net" modified="2021-08-11T17:45:03.345Z" agent="5.0 (Macintosh; Intel Mac OS X 10_15_7) AppleWebKit/537.36 (KHTML, like Gecko) Chrome/92.0.4515.131 Safari/537.36" etag="W1Ye9hRIKZXj-qQcF3_V" version="14.9.3" type="github">
  <diagram id="kIdQHwiV4txd9vQTz91r" name="Page-1">
    <mxGraphModel dx="1319" dy="635" grid="0" gridSize="10" guides="1" tooltips="1" connect="1" arrows="1" fold="1" page="1" pageScale="1" pageWidth="850" pageHeight="1100" background="#8F008F" math="0" shadow="1">
      <root>
        <mxCell id="0" />
        <mxCell id="1" parent="0" />
        <mxCell id="sVCISHk9d0EKlbh-t98Z-10" style="edgeStyle=orthogonalEdgeStyle;rounded=0;orthogonalLoop=1;jettySize=auto;html=1;exitX=0;exitY=0.75;exitDx=0;exitDy=0;startArrow=none;startFill=0;sketch=1;endArrow=ERmany;endFill=0;shadow=1;strokeWidth=3;labelBackgroundColor=#FAD9D5;strokeColor=#FFFF00;" edge="1" parent="1" source="sVCISHk9d0EKlbh-t98Z-2">
          <mxGeometry relative="1" as="geometry">
            <mxPoint x="245" y="291" as="targetPoint" />
          </mxGeometry>
        </mxCell>
        <mxCell id="sVCISHk9d0EKlbh-t98Z-11" style="edgeStyle=orthogonalEdgeStyle;rounded=0;sketch=1;orthogonalLoop=1;jettySize=auto;html=1;exitX=1;exitY=0.75;exitDx=0;exitDy=0;shadow=1;startArrow=none;startFill=0;endArrow=ERmany;endFill=0;strokeWidth=3;labelBackgroundColor=#FAD9D5;strokeColor=#FFFF00;" edge="1" parent="1" source="sVCISHk9d0EKlbh-t98Z-2">
          <mxGeometry relative="1" as="geometry">
            <mxPoint x="632" y="281" as="targetPoint" />
          </mxGeometry>
        </mxCell>
        <mxCell id="sVCISHk9d0EKlbh-t98Z-2" value="Users" style="swimlane;sketch=1;strokeWidth=2;strokeColor=#EEEEEE;fontColor=#FFFFFF;fontStyle=5;fontSize=14;fillColor=none;" vertex="1" parent="1">
          <mxGeometry x="333" y="57" width="205" height="180" as="geometry" />
        </mxCell>
        <mxCell id="sVCISHk9d0EKlbh-t98Z-8" value="&lt;font style=&quot;font-size: 19px&quot;&gt;Id&lt;br&gt;username&lt;br&gt;password_digest&lt;br&gt;created_at&lt;br&gt;updated_at&lt;/font&gt;" style="text;html=1;strokeColor=none;fillColor=none;align=center;verticalAlign=middle;whiteSpace=wrap;rounded=0;sketch=1;fontColor=#FFFFFF;" vertex="1" parent="sVCISHk9d0EKlbh-t98Z-2">
          <mxGeometry x="21" y="40" width="160" height="120" as="geometry" />
        </mxCell>
        <mxCell id="sVCISHk9d0EKlbh-t98Z-5" value="Comments" style="swimlane;sketch=1;strokeWidth=2;strokeColor=#EEEEEE;fontColor=#FFFFFF;fontSize=14;fillColor=none;" vertex="1" parent="1">
          <mxGeometry x="152" y="301" width="200" height="200" as="geometry" />
        </mxCell>
        <mxCell id="sVCISHk9d0EKlbh-t98Z-6" value="&lt;font style=&quot;font-size: 19px&quot;&gt;id&lt;br&gt;post_id&lt;br&gt;user_id&lt;br&gt;content&lt;br&gt;created_at&lt;br&gt;updated_at&lt;/font&gt;" style="text;html=1;strokeColor=none;fillColor=none;align=center;verticalAlign=middle;whiteSpace=wrap;rounded=0;sketch=1;fontColor=#FFFFFF;" vertex="1" parent="sVCISHk9d0EKlbh-t98Z-5">
          <mxGeometry x="11" y="29" width="170" height="150" as="geometry" />
        </mxCell>
        <mxCell id="sVCISHk9d0EKlbh-t98Z-3" value="Jokes" style="swimlane;fontStyle=5;startSize=23;sketch=1;strokeWidth=2;labelBackgroundColor=none;fontColor=#FFFFFF;fontSize=16;fillColor=none;swimlaneFillColor=none;strokeColor=#FFFFFF;" vertex="1" parent="1">
          <mxGeometry x="552" y="291" width="160" height="160" as="geometry" />
        </mxCell>
        <mxCell id="sVCISHk9d0EKlbh-t98Z-7" value="&lt;font style=&quot;font-size: 19px&quot;&gt;id&lt;br&gt;title&lt;br&gt;content&lt;br&gt;user_id&lt;br&gt;created_at&lt;br&gt;updated_at&lt;/font&gt;" style="text;html=1;strokeColor=none;fillColor=none;align=center;verticalAlign=middle;whiteSpace=wrap;rounded=0;sketch=1;fontColor=#FFFFFF;" vertex="1" parent="sVCISHk9d0EKlbh-t98Z-3">
          <mxGeometry x="15" y="30" width="135" height="120" as="geometry" />
        </mxCell>
        <mxCell id="sVCISHk9d0EKlbh-t98Z-12" style="edgeStyle=orthogonalEdgeStyle;rounded=0;sketch=1;orthogonalLoop=1;jettySize=auto;html=1;shadow=1;startArrow=none;startFill=0;endArrow=ERmany;endFill=0;strokeWidth=3;labelBackgroundColor=#FAD9D5;strokeColor=#FFFF00;" edge="1" parent="1">
          <mxGeometry relative="1" as="geometry">
            <mxPoint x="230.5" y="510" as="targetPoint" />
            <mxPoint x="640.5" y="460" as="sourcePoint" />
            <Array as="points">
              <mxPoint x="640.5" y="660" />
              <mxPoint x="230.5" y="660" />
            </Array>
          </mxGeometry>
        </mxCell>
      </root>
    </mxGraphModel>
  </diagram>
</mxfile>
